<?xml version="1.0" encoding="UTF-8" standalone="no"?>
<!-- Created with Inkscape (http://www.inkscape.org/) -->

<svg
   xmlns:dc="http://purl.org/dc/elements/1.1/"
   xmlns:cc="http://creativecommons.org/ns#"
   xmlns:rdf="http://www.w3.org/1999/02/22-rdf-syntax-ns#"
   xmlns:svg="http://www.w3.org/2000/svg"
   xmlns="http://www.w3.org/2000/svg"
   xmlns:sodipodi="http://sodipodi.sourceforge.net/DTD/sodipodi-0.dtd"
   xmlns:inkscape="http://www.inkscape.org/namespaces/inkscape"
   width="563"
   height="396"
   id="svg2"
   version="1.1"
   inkscape:version="0.48.4 r9939"
   sodipodi:docname="desenho0.svg"
   inkscape:export-filename="/media/fernando/FER8G-BTRFS/desenho4.png"
   inkscape:export-xdpi="163.63637"
   inkscape:export-ydpi="163.63637">
  <defs
     id="defs4" />
  <sodipodi:namedview
     id="base"
     pagecolor="#ffffff"
     bordercolor="#666666"
     borderopacity="1.0"
     inkscape:pageopacity="0.0"
     inkscape:pageshadow="2"
     inkscape:zoom="0.98994949"
     inkscape:cx="278.84065"
     inkscape:cy="151.59034"
     inkscape:document-units="px"
     inkscape:current-layer="layer1"
     showgrid="false"
     inkscape:window-width="1538"
     inkscape:window-height="781"
     inkscape:window-x="75"
     inkscape:window-y="34"
     inkscape:window-maximized="0"
     units="px">
    <inkscape:grid
       type="xygrid"
       id="grid4117"
       empspacing="5"
       visible="true"
       enabled="true"
       snapvisiblegridlinesonly="true" />
  </sodipodi:namedview>
  <metadata
     id="metadata7">
    <rdf:RDF>
      <cc:Work
         rdf:about="">
        <dc:format>image/svg+xml</dc:format>
        <dc:type
           rdf:resource="http://purl.org/dc/dcmitype/StillImage" />
        <dc:title></dc:title>
      </cc:Work>
    </rdf:RDF>
  </metadata>
  <g
     inkscape:label="Camada 1"
     inkscape:groupmode="layer"
     id="layer1"
     transform="translate(0,-656.36221)">
    <path
       sodipodi:type="arc"
       style="fill:none;stroke:#000000;stroke-width:11.17632675;stroke-linecap:butt;stroke-linejoin:round;stroke-miterlimit:4;stroke-opacity:1;stroke-dasharray:none;stroke-dashoffset:20;marker-start:none"
       id="path2985"
       sodipodi:cx="381.42856"
       sodipodi:cy="542.36218"
       sodipodi:rx="201.42857"
       sodipodi:ry="207.14285"
       d="m 582.85713,542.36218 c 0,114.40184 -90.18264,207.14286 -201.42857,207.14286 -111.24593,0 -201.42858,-92.74102 -201.42858,-207.14286 0,-114.40184 90.18265,-207.14285 201.42858,-207.14285 111.24593,0 201.42857,92.74101 201.42857,207.14285 z"
       transform="matrix(0.73812649,0,0,0.69414629,1.3961651,480.04093)" />
    <path
       sodipodi:type="arc"
       style="fill:#eedb92;fill-opacity:1;stroke:#000000;stroke-width:8;stroke-linecap:butt;stroke-linejoin:round;stroke-miterlimit:4;stroke-opacity:1;stroke-dasharray:none;stroke-dashoffset:20"
       id="path4115"
       sodipodi:cx="436.38589"
       sodipodi:cy="272.52441"
       sodipodi:rx="27.274118"
       sodipodi:ry="26.263966"
       d="m 463.66001,272.52441 c 0,14.50519 -12.21104,26.26397 -27.27412,26.26397 -15.06307,0 -27.27411,-11.75878 -27.27411,-26.26397 0,-14.50518 12.21104,-26.26396 27.27411,-26.26396 15.06308,0 27.27412,11.75878 27.27412,26.26396 z"
       transform="translate(-154.55333,443.45697)" />
    <path
       sodipodi:type="arc"
       style="fill:#eedb92;fill-opacity:1;stroke:#000000;stroke-width:8;stroke-linecap:butt;stroke-linejoin:round;stroke-miterlimit:4;stroke-opacity:1;stroke-dasharray:none;stroke-dashoffset:20"
       id="path4115-3"
       sodipodi:cx="436.38589"
       sodipodi:cy="272.52441"
       sodipodi:rx="27.274118"
       sodipodi:ry="26.263966"
       d="m 463.66001,272.52441 a 27.274118,26.263966 0 1 1 -54.54823,0 27.274118,26.263966 0 1 1 54.54823,0 z"
       transform="translate(-149.50257,725.28954)" />
    <path
       sodipodi:type="arc"
       style="fill:#eedb92;fill-opacity:1;stroke:#000000;stroke-width:8;stroke-linecap:butt;stroke-linejoin:round;stroke-miterlimit:4;stroke-opacity:1;stroke-dasharray:none;stroke-dashoffset:20"
       id="path4115-6"
       sodipodi:cx="436.38589"
       sodipodi:cy="272.52441"
       sodipodi:rx="27.274118"
       sodipodi:ry="26.263966"
       d="m 463.66001,272.52441 c 0,14.50519 -12.21104,26.26397 -27.27412,26.26397 -15.06307,0 -27.27411,-11.75878 -27.27411,-26.26397 0,-14.50518 12.21104,-26.26396 27.27411,-26.26396 15.06308,0 27.27412,11.75878 27.27412,26.26396 z"
       transform="translate(-7.0710649,582.85803)" />
    <path
       sodipodi:type="arc"
       style="fill:#ee9298;fill-opacity:1;stroke:#000000;stroke-width:8;stroke-linecap:butt;stroke-linejoin:round;stroke-miterlimit:4;stroke-opacity:1;stroke-dasharray:none;stroke-dashoffset:20"
       id="path4115-7"
       sodipodi:cx="436.38589"
       sodipodi:cy="272.52441"
       sodipodi:rx="27.274118"
       sodipodi:ry="26.263966"
       d="m 463.66001,272.52441 a 27.274118,26.263966 0 1 1 -54.54823,0 27.274118,26.263966 0 1 1 54.54823,0 z"
       transform="matrix(1.2751037,0,0,1.2664538,-237.22906,573.88249)"
       inkscape:export-filename="/media/fernando/FER8G-BTRFS/img3.png"
       inkscape:export-xdpi="1156.4044"
       inkscape:export-ydpi="1156.4044" />
  </g>
</svg>
